<?xml version="1.0" encoding="UTF-8" standalone="no"?>
<!DOCTYPE svg PUBLIC "-//W3C//DTD SVG 1.1//EN" "http://www.w3.org/Graphics/SVG/1.1/DTD/svg11.dtd">
<svg width="100%" height="100%" viewBox="0 0 140 219" version="1.1" xmlns="http://www.w3.org/2000/svg" xmlns:xlink="http://www.w3.org/1999/xlink" xml:space="preserve" xmlns:serif="http://www.serif.com/" style="fill-rule:evenodd;clip-rule:evenodd;stroke-miterlimit:1;">
    <g transform="matrix(1,0,0,1,-111.068,-93.904)">
        <g transform="matrix(1.13587,0,0,1.13587,863.263,-0.409287)">
            <g>
                <g transform="matrix(1.22468,0,0,1.22468,-760.192,-39.4366)">
                    <circle cx="130" cy="150" r="50" style="fill:rgb(1,0,1);fill-opacity:0.8;"/>
                </g>
                <g transform="matrix(0.88038,0,0,0.88038,-760,-8.44347)">
                    <circle cx="150" cy="153.012" r="10" style="fill:rgb(254,255,254);"/>
                </g>
                <g transform="matrix(0.88038,0,0,0.88038,-707.177,-8.44347)">
                    <circle cx="150" cy="153.012" r="10" style="fill:rgb(254,255,254);"/>
                </g>
            </g>
            <g transform="matrix(1,0,0,1,-1.13687e-13,69.6454)">
                <g transform="matrix(1.22468,0,0,1.22468,-760.192,-39.4366)">
                    <circle cx="130" cy="150" r="50" style="fill:rgb(1,0,1);fill-opacity:0.8;"/>
                </g>
                <g transform="matrix(0.88038,0,0,0.88038,-760,27.1643)">
                    <circle cx="150" cy="153.012" r="10" style="fill:rgb(254,255,254);"/>
                </g>
                <g transform="matrix(0.88038,0,0,0.88038,-707.177,27.1643)">
                    <circle cx="150" cy="153.012" r="10" style="fill:rgb(254,255,254);"/>
                </g>
            </g>
            <g transform="matrix(0.88038,0,0,0.88038,-760,9.16413)">
                <g transform="matrix(1,-0,-0,1,111.068,83.904)">
                    <path d="M78.822,85.286L75.286,88.822L69.554,83.09L63.822,88.822L60.286,85.286L69.554,76.019L78.822,85.286Z" style="fill:rgb(254,255,254);"/>
                    <path d="M78.822,153.376L69.554,162.644L60.286,153.376L63.822,149.84L69.554,155.573L75.286,149.84L78.822,153.376Z" style="fill:rgb(254,255,254);"/>
                    <path d="M69.554,79.554L69.554,159.108" style="fill:none;stroke:rgb(254,255,254);stroke-width:5px;"/>
                </g>
            </g>
        </g>
    </g>
</svg>
